<svg width="20" height="24" viewBox="0 0 20 24" fill="none" xmlns="http://www.w3.org/2000/svg">
<g clip-path="url(#clip0_257_740)">
<path d="M6.48286 1.91436L6.48287 1.91437L6.48429 1.91148C6.6409 1.5934 6.96208 1.39551 7.3125 1.39551H12.6875C13.0379 1.39551 13.3591 1.5934 13.5157 1.91148L13.5157 1.91148L13.5171 1.91436L13.8386 2.55675L13.9768 2.83301H14.2857H18.5714C19.0825 2.83301 19.5 3.24859 19.5 3.77051C19.5 4.29242 19.0825 4.70801 18.5714 4.70801H1.42857C0.917468 4.70801 0.5 4.29242 0.5 3.77051C0.5 3.24859 0.917468 2.83301 1.42857 2.83301H5.71429H6.0232L6.16143 2.55675L6.48286 1.91436ZM2.87402 21.8427L1.96061 7.14551H18.0394L17.126 21.8427C17.0709 22.7185 16.3493 23.3955 15.4866 23.3955H4.51339C3.65081 23.3955 2.92926 22.7187 2.87404 21.843C2.87403 21.8429 2.87402 21.8428 2.87402 21.8427Z" fill="#58C4DC" stroke="#333333"/>
</g>
<defs>
<clipPath id="clip0_257_740">
<rect width="20" height="23" fill="white" transform="translate(0 0.895508)"/>
</clipPath>
</defs>
</svg>
