<svg width="24" height="24" viewBox="0 0 24 24" fill="none" xmlns="http://www.w3.org/2000/svg">
<g clip-path="url(#clip0_257_738)">
<path d="M22.7486 3.89767L22.749 3.8981C23.7155 4.82431 23.7155 6.31534 22.749 7.24154L20.8262 9.08422L15.4551 3.93691L17.2021 2.2627H17.2068L17.3519 2.12369C18.3304 1.18598 19.9237 1.18598 20.9022 2.12369L22.7486 3.89767ZM19.0441 10.7919L8.48505 20.9067L8.48497 20.9068C8.05876 21.3152 7.52684 21.6167 6.94135 21.784C6.94108 21.7841 6.94082 21.7842 6.94055 21.7842L1.30669 23.373C1.30612 23.3732 1.30554 23.3733 1.30497 23.3735C1.07552 23.4357 0.83278 23.3727 0.673754 23.2203C0.51785 23.0708 0.463472 22.8579 0.524525 22.6589C0.524532 22.6589 0.524538 22.6588 0.524545 22.6588L2.18339 17.2564C2.18349 17.2561 2.18359 17.2558 2.18368 17.2555C2.35555 16.7031 2.66653 16.1971 3.0925 15.7889L3.09258 15.7888L13.6732 5.64475L19.0441 10.7919Z" fill="#58C4DC" stroke="#333333"/>
</g>
<defs>
<clipPath id="clip0_257_738">
<rect width="24" height="23" fill="white" transform="translate(0 0.895508)"/>
</clipPath>
</defs>
</svg>
